0
SECTION
2
ENTITIES
0
LINE
8
ADYACENCIAS
10
15511.13
20
25405.57
11
6773.33
21
25135.81
0
LINE
8
ADYACENCIAS
10
6773.33
20
25135.81
11
892.06
21
47940.53
0
LINE
8
ADYACENCIAS
10
6773.33
20
25135.81
11
24175.83
21
46961.76
0
LINE
8
ADYACENCIAS
10
892.06
20
47940.53
11
24175.83
21
46961.76
0
LINE
8
ADYACENCIAS
10
892.06
20
47940.53
11
14035.78
21
71447.16
0
CIRCLE
8
ESPACIOS
10
15511.13
20
25405.57
40
2985.41
0
TEXT
8
TEXTOS
10
15063.32
20
25554.84
40
1492.71
1
1
0
TEXT
8
TEXTOS
10
13122.80
20
24509.94
40
522.45
1
Cochera techada para 2 autos
0
TEXT
8
TEXTOS
10
14018.42
20
23763.59
40
447.81
1
28 m2
0
CIRCLE
8
ESPACIOS
10
6773.33
20
25135.81
40
1055.50
0
TEXT
8
TEXTOS
10
6615.00
20
25188.58
40
527.75
1
2
0
TEXT
8
TEXTOS
10
5928.93
20
24819.16
40
184.71
1
Acceso principal / Vestíbulo
0
TEXT
8
TEXTOS
10
6245.58
20
24555.28
40
158.33
1
3.5 m2
0
CIRCLE
8
ESPACIOS
10
892.06
20
47940.53
40
892.06
0
TEXT
8
TEXTOS
10
758.25
20
47985.13
40
446.03
1
3
0
TEXT
8
TEXTOS
10
178.41
20
47672.91
40
156.11
1
Medio baño de visita
0
TEXT
8
TEXTOS
10
446.03
20
47449.89
40
133.81
1
2.5 m2
0
CIRCLE
8
ESPACIOS
10
24175.83
20
46961.76
40
2111.00
0
TEXT
8
TEXTOS
10
23859.18
20
47067.31
40
1055.50
1
4
0
TEXT
8
TEXTOS
10
22487.03
20
46328.46
40
369.43
1
Sala de estar
0
TEXT
8
TEXTOS
10
23120.33
20
45800.71
40
316.65
1
14 m2
0
CIRCLE
8
ESPACIOS
10
14035.78
20
71447.16
40
1954.41
0
TEXT
8
TEXTOS
10
13742.61
20
71544.88
40
977.21
1
5
0
TEXT
8
TEXTOS
10
12472.25
20
70860.84
40
342.02
1
Comedor
0
TEXT
8
TEXTOS
10
13058.57
20
70372.24
40
293.16
1
12 m2
0
CIRCLE
8
ESPACIOS
10
3085.60
20
65519.90
40
1784.12
0
TEXT
8
TEXTOS
10
2817.98
20
65609.10
40
892.06
1
6
0
TEXT
8
TEXTOS
10
1658.30
20
64984.66
40
312.22
1
Cocina integral
0
TEXT
8
TEXTOS
10
2193.54
20
64538.63
40
267.62
1
10 m2
0
CIRCLE
8
ESPACIOS
10
10895.89
20
3915.22
40
1128.38
0
TEXT
8
TEXTOS
10
10726.63
20
3971.64
40
564.19
1
7
0
TEXT
8
TEXTOS
10
9993.19
20
3576.71
40
197.47
1
Área de lavado / Cuarto de máquinas
0
TEXT
8
TEXTOS
10
10331.70
20
3294.61
40
169.26
1
4 m2
0
CIRCLE
8
ESPACIOS
10
12885.66
20
44568.70
40
977.21
0
TEXT
8
TEXTOS
10
12739.08
20
44617.56
40
488.60
1
8
0
TEXT
8
TEXTOS
10
12103.89
20
44275.54
40
171.01
1
Escalera (tramo a planta alta)
0
TEXT
8
TEXTOS
10
12397.06
20
44031.24
40
146.58
1
3 m2
0
CIRCLE
8
ESPACIOS
10
28626.42
20
20290.01
40
3337.79
0
TEXT
8
TEXTOS
10
28125.75
20
20456.90
40
1668.90
1
9
0
TEXT
8
TEXTOS
10
25956.19
20
19288.67
40
584.11
1
Patio trasero / Jardín
0
TEXT
8
TEXTOS
10
26957.53
20
18454.22
40
500.67
1
35 m2
0
CIRCLE
8
ESPACIOS
10
55795.33
20
1492.71
40
1492.71
0
TEXT
8
TEXTOS
10
55571.42
20
1567.34
40
746.35
1
10
0
TEXT
8
TEXTOS
10
54601.17
20
1044.89
40
261.22
1
Hall / Circulación y cubo de escalera
0
TEXT
8
TEXTOS
10
55048.98
20
671.72
40
223.91
1
7 m2
0
CIRCLE
8
ESPACIOS
10
68568.76
20
77332.13
40
1692.57
0
TEXT
8
TEXTOS
10
68314.88
20
77416.76
40
846.28
1
11
0
TEXT
8
TEXTOS
10
67214.71
20
76824.36
40
296.20
1
Oficina / Studio de trabajo
0
TEXT
8
TEXTOS
10
67722.48
20
76401.22
40
253.89
1
9 m2
0
CIRCLE
8
ESPACIOS
10
65810.34
20
10533.73
40
1954.41
0
TEXT
8
TEXTOS
10
65517.18
20
10631.45
40
977.21
1
12
0
TEXT
8
TEXTOS
10
64246.81
20
9947.40
40
342.02
1
Recámara secundaria
0
TEXT
8
TEXTOS
10
64833.14
20
9458.80
40
293.16
1
12 m2
0
CIRCLE
8
ESPACIOS
10
66410.84
20
43427.38
40
1196.83
0
TEXT
8
TEXTOS
10
66231.31
20
43487.22
40
598.41
1
13
0
TEXT
8
TEXTOS
10
65453.38
20
43068.33
40
209.44
1
Baño completo
0
TEXT
8
TEXTOS
10
65812.42
20
42769.12
40
179.52
1
4.5 m2
0
CIRCLE
8
ESPACIOS
10
73522.82
20
21621.03
40
2185.10
0
TEXT
8
TEXTOS
10
73195.06
20
21730.29
40
1092.55
1
14
0
TEXT
8
TEXTOS
10
71774.75
20
20965.50
40
382.39
1
Recámara principal
0
TEXT
8
TEXTOS
10
72430.27
20
20419.23
40
327.76
1
15 m2
0
CIRCLE
8
ESPACIOS
10
56814.45
20
69081.82
40
1381.98
0
TEXT
8
TEXTOS
10
56607.15
20
69150.92
40
690.99
1
15
0
TEXT
8
TEXTOS
10
55708.87
20
68667.23
40
241.85
1
Walk-in Closet / Vestidor principal
0
TEXT
8
TEXTOS
10
56123.46
20
68321.74
40
207.30
1
6 m2
0
CIRCLE
8
ESPACIOS
10
71358.06
20
57558.82
40
1644.88
0
TEXT
8
TEXTOS
10
71111.33
20
57641.06
40
822.44
1
16
0
TEXT
8
TEXTOS
10
70042.15
20
57065.35
40
287.85
1
Baño principal
0
TEXT
8
TEXTOS
10
70535.62
20
56654.13
40
246.73
1
8.5 m2
0
ENDSEC
0
EOF
